<svg width="1982" height="362" viewBox="0 0 1982 362" fill="none" xmlns="http://www.w3.org/2000/svg">
<path fill-rule="evenodd" clip-rule="evenodd" d="M1982 178.394L1934.1 218.037C1887.86 257.68 1793.71 336.966 1699.57 356.788C1603.77 376.609 1509.62 336.966 1415.48 287.412C1321.33 237.858 1227.19 178.394 1133.04 188.305C1038.9 198.215 943.102 277.501 848.957 297.323C754.812 317.145 660.667 277.502 566.522 267.591C472.377 257.68 378.232 277.502 282.435 247.769C188.29 218.037 94.1451 138.751 47.8984 99.1078L6.51042e-05 59.4648L5.99057e-05 0.000167457L47.8984 0.000163269C94.1451 0.000159226 188.29 0.000150996 282.435 0.000142765C378.232 0.000134391 472.377 0.00012616 566.522 0.00011793C660.667 0.000109699 754.812 0.000101469 848.957 9.32384e-05C943.102 8.5008e-05 1038.9 7.66332e-05 1133.04 6.84028e-05C1227.19 6.01724e-05 1321.33 5.1942e-05 1415.48 4.37115e-05C1509.62 3.54811e-05 1603.77 2.72507e-05 1699.57 1.88759e-05C1793.71 1.06455e-05 1887.86 2.41506e-06 1934.1 -1.62795e-06L1982 -5.81535e-06L1982 178.394Z" fill="url(#paint0_linear_2_5)"/>
<defs>
<linearGradient id="paint0_linear_2_5" x1="991" y1="362" x2="991" y2="8.6636e-05" gradientUnits="userSpaceOnUse">
<stop stop-color="#F87171" stop-opacity="0.21"/>
<stop offset="1" stop-color="#F87171"/>
</linearGradient>
</defs>
</svg>
