<svg width="1982" height="362" viewBox="0 0 1982 362" fill="none" xmlns="http://www.w3.org/2000/svg">
<path fill-rule="evenodd" clip-rule="evenodd" d="M1982 178.394L1934.1 218.037C1887.86 257.68 1793.71 336.966 1699.57 356.788C1603.77 376.609 1509.62 336.966 1415.48 287.412C1321.33 237.858 1227.19 178.394 1133.04 188.305C1038.9 198.215 943.102 277.501 848.957 297.323C754.812 317.145 660.667 277.502 566.522 267.591C472.377 257.68 378.232 277.502 282.435 247.769C188.29 218.037 94.1451 138.751 47.8984 99.1078L3.45867e-05 59.4647L2.93881e-05 0.000173272L47.8983 0.000169085C94.145 0.000165042 188.29 0.000156811 282.435 0.000148581C378.232 0.000140206 472.377 0.000131975 566.522 0.000123745C660.667 0.000115515 754.812 0.000107284 848.957 9.90538e-05C943.102 9.08234e-05 1038.9 8.24486e-05 1133.04 7.42181e-05C1227.19 6.59877e-05 1321.33 5.77573e-05 1415.48 4.95269e-05C1509.62 4.12965e-05 1603.77 3.30661e-05 1699.57 2.46913e-05C1793.71 1.64608e-05 1887.86 8.23042e-06 1934.1 4.18741e-06L1982 0L1982 178.394Z" fill="url(#paint0_linear_2_5)"/>
<defs>
<linearGradient id="paint0_linear_2_5" x1="991" y1="362" x2="991" y2="8.6636e-05" gradientUnits="userSpaceOnUse">
<stop offset="0.286458" stop-color="#FEE89A" stop-opacity="0.22"/>
<stop offset="1" stop-color="#FEC558"/>
</linearGradient>
</defs>
</svg>
