<svg width="80" height="81" viewBox="0 0 80 81" fill="none" xmlns="http://www.w3.org/2000/svg">
<path d="M3.28125 0.28776C2.39833 0.301561 1.55696 0.665095 0.941789 1.29858C0.326618 1.93206 -0.0120909 2.78372 1.30358e-07 3.66667C1.30358e-07 30.2631 15.8435 51.4042 36.6667 53.4648V58.1133L30 67L40 80.3333L50 67L43.3333 58.1133V53.4648C64.1565 51.4042 80 30.2631 80 3.66667C80.0062 3.22496 79.9246 2.78642 79.7599 2.37652C79.5952 1.96663 79.3507 1.59356 79.0405 1.27899C78.7304 0.964428 78.3608 0.71464 77.9533 0.544147C77.5458 0.373655 77.1084 0.285858 76.6667 0.285858C76.2249 0.285858 75.7876 0.373655 75.38 0.544147C74.9725 0.71464 74.6029 0.964428 74.2928 1.27899C73.9826 1.59356 73.7381 1.96663 73.5734 2.37652C73.4087 2.78642 73.3271 3.22496 73.3333 3.66667C73.3333 27.3604 59.8886 44.725 43.3268 46.7917C43.2846 45.9282 42.9087 45.1149 42.2782 44.5234C41.6478 43.9318 40.8123 43.6083 39.9479 43.6211C39.1015 43.635 38.2922 43.9705 37.684 44.5593C37.0759 45.1481 36.7145 45.9462 36.6732 46.7917C20.1114 44.725 6.66667 27.3604 6.66667 3.66667C6.67277 3.2207 6.58933 2.77804 6.42128 2.36491C6.25322 1.95178 6.00398 1.57657 5.6883 1.26149C5.37262 0.946424 4.99693 0.697901 4.58348 0.530643C4.17002 0.363386 3.7272 0.280795 3.28125 0.28776V0.28776Z" fill="black"/>
</svg>
