<svg width="67" height="81" viewBox="0 0 67 81" fill="none" xmlns="http://www.w3.org/2000/svg">
<path d="M44.9531 -0.0410159C44.1585 -0.0285947 43.4013 0.298585 42.8476 0.868717C42.294 1.43885 41.9891 2.20535 42 3V11.7188V21V24C41.9912 24.6872 42.2186 25.3567 42.6442 25.8964C43.0698 26.436 43.6677 26.8132 44.3381 26.9649C45.0085 27.1165 45.7106 27.0334 46.327 26.7294C46.9434 26.4254 47.4368 25.9191 47.7246 25.2949C47.8867 25.839 48 26.4031 48 27C48 30.315 45.315 33 42 33C38.685 33 36 30.315 36 27V9.97266C33.477 9.41466 31.2906 9.13758 29.6016 9.01758C27.2796 8.85258 25.0951 10.0799 23.9941 12.1289L0.714845 55.418C-0.386154 57.467 -0.203108 59.9655 1.21289 61.8105C3.80789 65.1825 8.8448 70.5836 17.0918 75.0176C25.3388 79.4516 32.6222 80.6764 36.8672 80.9824C39.1892 81.1474 41.3736 79.9201 42.4746 77.8711L65.7598 34.582C66.8608 32.533 66.6807 30.0345 65.2617 28.1895C62.6667 24.8175 57.624 19.4164 49.377 14.9824C48.9079 14.7299 48.4616 14.545 48 14.3145V3C48.0055 2.59863 47.9304 2.20024 47.7792 1.82842C47.6279 1.4566 47.4036 1.11891 47.1195 0.835345C46.8354 0.551781 46.4972 0.328111 46.1251 0.177579C45.753 0.0270476 45.3545 -0.0472847 44.9531 -0.0410159V-0.0410159ZM31.4063 45.9609C31.7897 45.997 32.1764 46.1124 32.5371 46.3066C33.9801 47.0836 34.5123 48.8773 33.7383 50.3203L25.3184 65.9766C24.5444 67.4166 22.7477 67.9606 21.3047 67.1836C19.8647 66.4096 19.3207 64.6129 20.0977 63.1699L28.5234 47.5137C29.1039 46.4314 30.2558 45.8527 31.4063 45.9609ZM66 46.7988L47.7832 80.6777C54.3742 79.9757 59.4092 78.2228 62.4902 76.8398C64.6382 75.8738 66 73.7339 66 71.3789V46.7988Z" fill="black"/>
</svg>
